<?xml version="1.0" encoding="utf-8"?>
<!-- Generator: Adobe Illustrator 22.1.0, SVG Export Plug-In . SVG Version: 6.00 Build 0)  -->
<svg version="1.1" id="Layer_1" xmlns="http://www.w3.org/2000/svg" xmlns:xlink="http://www.w3.org/1999/xlink" x="0px" y="0px"
	 viewBox="0 0 2204.5 552.5" style="enable-background:new 0 0 2204.5 552.5;" xml:space="preserve">
<style type="text/css">
	.st0{enable-background:new    ;}
	.st1{fill:#FFFFFF;}
	.st2{fill:#FFFFFF;enable-background:new    ;}
	.st3{fill:none;}
</style>
<title>Airgap_Logo_sideways_color</title>
<g id="Ebene_4_1_">
	<g class="st0">
		<path class="st1" d="M895,356.4H754.6l-30,87.1h-61.8L796.7,79.1h57.8l132.2,364.5h-61.8L895,356.4z M771.4,307.6h107.1
			l-53.1-154.9h-0.8L771.4,307.6z"/>
		<path class="st1" d="M1090,106.4h-60.8V53h60.8V106.4z M1090,443.5h-60.8V172.7h60.8V443.5z"/>
		<path class="st1" d="M1295.8,228.3l-28.8-1c-12,0-21.9,2.4-29.8,7.3c-7.8,4.8-13.9,11.9-18.3,21v188h-60.8V172.7h55.6l3.8,38h0.8
			c6.8-13.5,15.5-24.1,26-31.7c10.5-7.6,22.9-11.4,37-11.4c4,0,8,0.3,12,0.9c4,0.6,7.3,1.3,9.8,2.1L1295.8,228.3z"/>
	</g>
	<g class="st0">
		<path class="st1" d="M1621.5,396c-10,13.7-25.9,25.9-47.6,36.7c-21.7,10.8-50.2,16.1-85.4,16.1c-44.9,0-81.3-13.7-109.1-41.1
			c-27.9-27.4-41.8-63.5-41.8-108.4v-76.1c0-44.9,13.2-81,39.6-108.4c26.4-27.4,61.1-41.1,104.1-41.1c43.7,0,76.7,10.2,99,30.5
			c22.3,20.4,36,48.7,41.2,85.1h-59.8c-4-21.4-12-37.8-23.9-49.4c-11.9-11.6-30.4-17.4-55.4-17.4c-25.7,0-46.1,9.3-61.3,27.8
			c-15.2,18.5-22.8,42.6-22.8,72.3v76.6c0,30,8.2,54.4,24.7,73c16.4,18.6,38.3,27.9,65.7,27.9c19.4,0,34.8-2.2,46.3-6.5
			c11.5-4.3,20.1-9.6,25.8-15.8v-73.1h-72.6v-45.6h133.4V396z"/>
		<path class="st1" d="M1851.3,443.5c-1.8-5.7-3.4-11.3-4.6-17c-1.3-5.7-2.2-11.5-2.9-17.5c-9.2,11.7-20.3,21.2-33.3,28.5
			s-27.7,11-44.1,11c-27.9,0-49.3-7.1-64.2-21.4c-14.9-14.3-22.4-34.3-22.4-60c0-26.7,10.2-47.2,30.5-61.6
			c20.4-14.4,49.6-21.5,87.9-21.5h44.3v-23.8c0-14.3-4.2-25.5-12.5-33.4c-8.3-7.9-20.5-11.9-36.5-11.9c-14.7,0-26.2,3.3-34.5,9.9
			c-8.3,6.6-12.5,15.2-12.5,25.9h-60.8c0-22.7,10.2-42.2,30.7-58.6c20.4-16.4,47.4-24.5,81-24.5c32.2,0,57.9,7.9,77.2,23.7
			c19.3,15.8,28.9,38.9,28.9,69.5v120.4c0,11.5,0.7,22.3,2.1,32.3c1.4,10,3.9,20,7.4,30H1851.3z M1779.7,399.7c14,0,26.6-3,37.7-9
			c11.1-6,19.5-13.5,25.2-22.5v-46.1h-45.3c-18.2,0-32.2,4.3-41.9,12.9c-9.8,8.6-14.6,19-14.6,31.2c0,10.5,3.3,18.7,9.8,24.7
			C1756.9,396.8,1766.7,399.7,1779.7,399.7z"/>
		<path class="st1" d="M2204.5,317.1c0,40.2-9.1,72.2-27.3,95.9c-18.2,23.7-44.1,35.5-77.9,35.5c-15.7,0-29.3-2.6-40.8-7.9
			s-21.4-13.1-29.8-23.7l-0.8,0.2v130.4h-60.8v-375h54.3l4,32.5c8.7-12.3,19-21.7,30.9-28c11.9-6.3,26-9.5,42.2-9.5
			c34,0,60.2,13,78.5,39.1s27.4,61.1,27.4,105.1V317.1z M2143.9,311.9c0-28.2-5.1-51-15.3-68.3c-10.2-17.4-25.9-26-47.1-26
			c-12.9,0-23.7,2.7-32.4,8c-8.8,5.3-15.8,12.9-21.2,22.8v122.4c5.3,9.7,12.3,17,21,21.9c8.7,4.9,19.7,7.4,33,7.4
			c21.2,0,36.8-7.5,46.8-22.4c10-14.9,15-35.1,15-60.5V311.9z"/>
	</g>
</g>
<path class="st2" d="M341.7,312.7c0,16.6-13.5,30.1-30.1,30.1h-89.2v0.1h-29.8c-15.3,0.3-27.5,12.6-27.8,27.8
	c-0.3,15.6,12.2,28.5,27.8,28.8h29.8v0h65.1c19.1,0,34.5,15.4,34.5,34.5c0,19.1-15.5,34.5-34.5,34.5h-46.4
	c-10.2,0-18.5,8.2-18.7,18.5v23.1l-6.1-2.9c-31.5-14.8-63.7-30.1-89.3-53.9c-25.6-23.8-46.5-54.7-62.7-85.4
	c-11.1-21.3-17.4-47.7-19.9-71.3c-4.3-39.3-0.8-80.5,0.4-119.8c0.6-22.1,2.5-44.5,4.1-66.6c0,0,59.8-13.9,101.6-30.3
	C175,70.4,199,58.9,222.3,46l0,39.3c0,10.3,8.2,18.7,18.6,19h80c15.6,0.3,28.1,13.2,27.8,28.8c-0.3,15.3-12.5,27.5-27.7,27.8h-98.7
	v0h-28.5c-22.6,0.3-40.9,18.6-41.2,41.2c-0.4,23.1,18.1,42.1,41.2,42.5h38.1c-4.5,3.9-7.3,9.5-7.5,15.9c-0.3,12,9.2,21.8,21.1,22.1
	h66.1C328.2,282.6,341.7,296.1,341.7,312.7z"/>
<path class="st3" d="M273.2,468.6h14.3c19,0,34.5-15.4,34.5-34.5c0-19.1-15.4-34.5-34.5-34.5h-14.2l-80.6,0
	c-15.6-0.3-28.1-13.2-27.8-28.8c0.3-15.2,12.5-27.5,27.8-27.8l80.7-0.1h38.3c16.6,0,30.1-13.5,30.1-30.1c0-16.5-13.4-30-29.9-30.1
	h-66.3c-11.9-0.3-21.4-10.1-21.1-22.1c0.1-6.4,3-12,7.5-15.9h-38.1c-23.1-0.4-41.6-19.4-41.2-42.5c0.3-22.6,18.6-40.9,41.2-41.2
	h79.6v0H321c15.2-0.3,27.4-12.5,27.7-27.8c0.3-15.6-12.2-28.5-27.8-28.8h-47.5l0-58.1c23.1,12.7,46.7,24.2,71.5,33.8
	c41.6,16.4,101.6,30.3,101.6,30.3c1.6,22.1,3.5,44.4,4.1,66.6c1.2,39.3,4.7,80.5,0.4,119.8c-2.4,23.6-8.8,50.2-19.9,71.3
	c-16.2,30.7-37.1,61.7-62.7,85.4c-25.6,23.8-57.8,39.3-89.1,53.9l-6.1,2.9L273.2,468.6z"/>
<g>
	<path class="st3" d="M318.5,283.1h-0.2c0.4,0,0.7,0,1.1,0C319,283.1,318.8,283.1,318.5,283.1z"/>
	<path class="st2" d="M114.3,471.8C86,445.5,62.9,411.4,45,377.4c-12.2-23.5-19.2-52.7-21.9-78.7c-4.7-43.4-0.9-88.9,0.5-132.4
		c0.7-24.4,2.7-49.1,4.5-73.5c0,0,66.1-15.4,112.2-33.5c26.6-10.4,54.6-24.1,80-38v-9.6c0-10.4-7.5-14.6-16.4-9.3
		c0,0-34.6,20.2-61,32.6c-31.5,14.9-81,28.2-112.2,34.2c-20.4,4-23.3,17.1-24.4,29.3c-1.3,18.4-2.4,40.6-3.1,59
		c-1.6,47.9-5.8,98-0.7,145.5c3.1,28.6,11.1,61,24.4,86.7c19.5,37.5,45.2,71.4,76.1,100C134,518.7,203,550.9,203,550.9
		c9.3,4.4,17.3-0.7,17.3-11.1v-5l-7.3-3.4C178.1,515,142.6,498,114.3,471.8z"/>
	<path class="st2" d="M492.2,157.6c-0.7-18.4-1.6-40.8-3.1-59.2c-0.9-12.2-3.8-25.1-24.2-29.1c-31.3-6-81-19.3-112.5-34.2
		c-26-12.4-60.6-32.6-60.6-32.6c-8.9-5.1-16.4-0.9-16.4,9.5v9.7c25.1,13.7,52.8,27.1,79.5,37.5C401,77.4,467.3,92.8,467.3,92.8
		c1.8,24.4,3.8,49.1,4.5,73.5c1.4,43.4,5.2,88.9,0.5,132.4c-2.7,26-9.7,55.4-21.9,78.7c-17.9,33.9-41,68.1-69.2,94.4
		c-28.3,26.3-63.8,43.5-98.4,59.5l-7.3,3.4v5.3c0,10.4,7.8,15.3,17.3,10.9c0,0,68.8-32.2,99.8-61c30.8-28.8,56.6-62.8,75.9-100.3
		c13.5-25.5,21.3-57.9,24.4-86.5C498,255.4,493.6,205.3,492.2,157.6z"/>
</g>
</svg>
