<svg height="24" viewBox="0 0 12 24" width="12" xmlns="http://www.w3.org/2000/svg"><path d="m10.7470313 3.37889062-3.3743438-2.99999999c-.56835937-.50517188-1.42476562-.50517188-1.993125 0l-3.37439062 2.99999999c-1.0220625.90853125-.38925 2.62110938.9965625 2.62110938h2.53064062v16.3125h-4.40625c-.1491857-.0000136-.29226223.0592573-.39773437.1647656l-.5625.5625c-.35437501.3543281-.10340625.9602344.39773437.9602344h5.53125c.62132813 0 1.125-.5036719 1.125-1.125v-16.875h2.53059375c1.38525005 0 2.01900005-1.71225.99656255-2.62110938zm-7.7459063 1.12110938 3.375-3 3.375 3z" fill="#e0e7ff" transform="matrix(-1 0 0 -1 12 24)"/></svg>