<?xml version="1.0" encoding="utf-8"?>
<!-- Generator: Adobe Illustrator 23.0.4, SVG Export Plug-In . SVG Version: 6.00 Build 0)  -->
<svg version="1.1" id="Layer_1" xmlns="http://www.w3.org/2000/svg" xmlns:xlink="http://www.w3.org/1999/xlink" x="0px" y="0px"
	 viewBox="0 0 128 128" style="enable-background:new 0 0 128 128;" xml:space="preserve">
<g id="XMLID_266_">
	<g id="XMLID_352_">
		<polygon id="XMLID_390_" points="80.9,22.8 100.6,22.8 106.5,22.8 110.2,26.5 112.9,29.3 114.5,26.5 121.7,14 97.7,14 91.8,14 
			80.9,14 72.1,14 68.4,14 59.6,14 55.9,14 47.1,14 43.2,14 36.2,14 34.4,14 30.3,14 6.3,14 13.5,26.5 15.1,29.3 17.8,26.5 
			21.5,22.8 27.4,22.8 34.4,22.8 43.2,22.8 47.1,22.8 55.9,22.8 59.6,22.8 59.6,26.5 59.6,35.3 59.6,44.7 59.6,53.5 59.6,88.7 
			59.6,106.4 64,114 68.4,106.4 68.4,88.7 68.4,53.5 68.4,44.7 68.4,35.3 68.4,26.5 68.4,22.8 72.1,22.8 		"/>
		<path id="XMLID_386_" d="M98.9,53.5l5.1-8.8l5.4-9.4l1.4-2.4l-6.5-6.5h0H80.9h-8.8v8.8v9.4v8.8v28.8V100l8.8-15.3L98.9,53.5z
			 M80.9,35.3h18.3l-5.4,9.4H80.9V35.3z M80.9,53.5h7.8l-7.8,13.5V53.5z"/>
		<polygon id="XMLID_385_" points="43.2,26.5 34.4,26.5 23.7,26.5 17.2,33 18.6,35.3 24,44.7 29.1,53.5 30.4,55.8 30.4,53.5 
			30.4,44.7 30.4,38.2 28.8,35.3 34.4,35.3 34.4,44.7 34.4,45.2 34.4,53.5 34.4,62.8 43.2,78.1 43.2,60.4 43.2,53.5 43.2,44.7 
			43.2,35.3 47.1,35.3 47.1,44.7 47.1,53.5 47.1,67.1 47.1,84.7 55.9,100 55.9,82.3 55.9,53.5 55.9,44.7 55.9,35.3 55.9,26.5 
			47.1,26.5 		"/>
	</g>
</g>
</svg>
