<svg enable-background="new 0 0 400 100" viewBox="0 0 400 100" xmlns="http://www.w3.org/2000/svg" xmlns:xlink="http://www.w3.org/1999/xlink"><clipPath id="a"><path d="m6.3 9.7h80v80h-80z"/></clipPath><clipPath id="b"><path d="m-298.7-45.3h1750v875h-1750z"/></clipPath><g opacity=".8"><path d="m111.5 54.2h-7.1v-4.6h7.1v-12h5.1v12h9.8v4.6h-9.8v24.1c0 2.3.6 4.1 1.7 5.2 1.1 1.2 2.3 1.8 3.8 1.8.8 0 1.5-.1 2-.2.6-.1 1.2-.4 1.9-.7l1.6 4.4c-.9.4-1.8.7-2.8.9-.9.2-2 .3-3.3.3-2.8 0-5.1-.9-7-2.7-1-.9-1.7-2-2.2-3.4-.5-1.3-.8-2.9-.8-4.8z"/><path d="m168.1 79.4c-.7 1.4-1.6 2.8-2.6 4.1-1.1 1.3-2.3 2.4-3.7 3.4s-3 1.7-4.8 2.3-3.8.8-6 .8c-2.8 0-5.4-.5-7.8-1.6-2.4-1-4.5-2.5-6.2-4.4s-3.1-4.1-4-6.6-1.4-5.3-1.4-8.4c0-2.8.4-5.5 1.3-8s2.1-4.7 3.8-6.6 3.7-3.4 6-4.5 5-1.7 7.9-1.7c2.8 0 5.4.5 7.6 1.5 2.3 1 4.2 2.4 5.8 4.2s2.8 3.9 3.7 6.4 1.3 5.3 1.3 8.3v.5c-.1.2-.1.3-.1.4v.5h-32.2c.1 2.7.5 5 1.4 7 .9 1.9 2.1 3.5 3.4 4.8 1.4 1.3 2.9 2.2 4.6 2.8s3.4.9 5 .9c3.3 0 5.9-.8 7.8-2.3s3.5-3.5 4.8-5.8zm-4.5-13.7c-.1-1.3-.3-2.7-.8-4.2s-1.2-2.9-2.2-4.2-2.4-2.3-4-3.2c-1.7-.9-3.7-1.3-6.2-1.3-1.6 0-3.1.3-4.6.8-1.5.6-2.8 1.4-4 2.4-1.2 1.1-2.2 2.4-3 4s-1.4 3.4-1.6 5.5h26.4z"/><path d="m173.6 84.4 24-30.2h-23.4v-4.6h29.6v4.3l-24 30.2h24.3v4.6h-30.6v-4.3z"/><path d="m212.4 31.4h5.1v19.4l-.3 5.4h.3c.6-1.1 1.4-2.1 2.3-3.1s2-1.9 3.2-2.6 2.6-1.3 4.2-1.8c1.5-.4 3.3-.6 5.1-.6 2.5 0 4.9.5 7.1 1.6 2.2 1 4.2 2.5 5.9 4.3s3 4 4 6.6 1.5 5.4 1.5 8.4-.5 5.8-1.5 8.4-2.3 4.8-4 6.6-3.6 3.3-5.9 4.3c-2.2 1-4.6 1.6-7.1 1.6-1.9 0-3.6-.2-5.1-.7s-2.9-1.1-4.2-1.8c-1.2-.7-2.3-1.6-3.2-2.6s-1.7-2-2.3-3.1h-.3v6.9h-4.8zm19.1 53.9c1.9 0 3.7-.4 5.4-1.1s3.3-1.8 4.6-3.2 2.3-3.1 3.1-5.1 1.2-4.3 1.2-6.8-.4-4.8-1.2-6.8-1.8-3.7-3.1-5.1-2.8-2.5-4.6-3.2c-1.7-.7-3.5-1.1-5.4-1.1s-3.7.4-5.4 1.1-3.3 1.8-4.6 3.2-2.3 3.1-3.1 5.1-1.2 4.3-1.2 6.9.4 4.8 1.2 6.8 1.8 3.7 3.1 5.1 2.8 2.5 4.6 3.2c1.7.7 3.5 1 5.4 1z"/><path d="m257.6 88.7v-57.3h5.1v57.3z"/><path d="m289.2 48.2c2.9 0 5.5.5 8 1.6 2.4 1.1 4.5 2.5 6.3 4.4s3.1 4.1 4.1 6.6 1.5 5.3 1.5 8.3-.5 5.7-1.5 8.3c-1 2.5-2.4 4.7-4.1 6.6-1.8 1.9-3.9 3.3-6.3 4.4s-5.1 1.6-8 1.6c-2.8 0-5.5-.5-7.9-1.6s-4.5-2.5-6.3-4.4-3.1-4.1-4.1-6.6-1.5-5.3-1.5-8.3.5-5.7 1.5-8.3c1-2.5 2.4-4.7 4.1-6.6s3.9-3.3 6.3-4.4c2.5-1 5.1-1.6 7.9-1.6zm0 37.1c1.9 0 3.8-.4 5.5-1.2 1.8-.8 3.3-1.9 4.7-3.3s2.5-3.1 3.3-5.1 1.2-4.2 1.2-6.7-.4-4.7-1.2-6.7-1.9-3.7-3.3-5.1-2.9-2.5-4.7-3.3-3.6-1.2-5.5-1.2-3.8.4-5.5 1.2c-1.8.8-3.3 1.9-4.7 3.3s-2.4 3.1-3.2 5.1-1.2 4.2-1.2 6.7.4 4.7 1.2 6.7 1.9 3.7 3.2 5.1c1.4 1.4 2.9 2.5 4.7 3.3 1.8.9 3.6 1.2 5.5 1.2z"/><path d="m350.4 78.8c-.7 1.6-1.6 3.1-2.6 4.4s-2.3 2.5-3.6 3.5c-1.4 1-3 1.8-4.8 2.4s-3.8.9-6 .9c-2.8 0-5.4-.5-7.8-1.6s-4.5-2.5-6.2-4.4-3.1-4.1-4.1-6.6-1.5-5.3-1.5-8.3.5-5.7 1.5-8.3c1-2.5 2.3-4.7 4.1-6.6 1.7-1.9 3.8-3.3 6.2-4.4s5-1.6 7.8-1.6c2.2 0 4.2.3 6 .8 1.8.6 3.4 1.3 4.8 2.4 1.4 1 2.6 2.2 3.6 3.5s1.8 2.8 2.5 4.4l-4.6 2c-1.2-2.7-2.8-4.8-4.9-6.3s-4.6-2.2-7.7-2.2c-1.8 0-3.6.4-5.3 1.2s-3.2 1.9-4.6 3.3c-1.3 1.4-2.4 3.1-3.2 5.1s-1.2 4.2-1.2 6.7.4 4.7 1.2 6.7 1.9 3.7 3.2 5.1 2.9 2.5 4.6 3.3 3.5 1.2 5.3 1.2c3 0 5.6-.7 7.8-2.2 2.1-1.5 3.8-3.6 5-6.3z"/><path d="m357.2 31.4h5.1v38l19.8-19.9h6.5v.3l-14.7 14.8 16.2 23.8v.3h-6l-13.8-20.5-7.9 7.9v12.6h-5.1v-57.3z"/></g><g clip-path="url(#a)"><path clip-path="url(#b)" d="m6.3 9.7h80v80h-80z" fill="none" stroke="#333" stroke-miterlimit="10" stroke-width="8"/></g></svg>