<svg xmlns="http://www.w3.org/2000/svg" width="56" height="56" viewBox="0 0 56 56">
  <defs>
    <linearGradient id="14ila" x1="7.94" x2="27.48" y1="4.71" y2="27.76" gradientUnits="userSpaceOnUse">
      <stop offset="0" stop-color="#4a90e2"/>
      <stop offset="1" stop-color="#76bafe"/>
    </linearGradient>
  </defs>
  <g>
    <g>
      <path fill="none" d="M42.262 32.784l-9.582-4.89 9.428-4.81a7.764 7.764 0 0 0 3.014 1.654v6.524a7.77 7.77 0 0 0-2.86 1.522zm-8.581 9.881a7.734 7.734 0 0 0-3.486-2.114v-9.148l9.71 4.964a7.11 7.11 0 0 0-.196 3.068zm-17.418-3.13a7.107 7.107 0 0 0-.178-3.172l9.71-4.96v9.14A7.73 7.73 0 0 0 22.27 42.7zM8.683 41.5c-1.816 0-3.293-1.42-3.293-3.164 0-1.745 1.477-3.164 3.293-3.164s3.293 1.42 3.293 3.164c0 1.745-1.477 3.164-3.293 3.164zm0-27c1.816 0 3.293 1.42 3.293 3.164 0 1.745-1.477 3.164-3.293 3.164s-3.293-1.42-3.293-3.164c0-1.745 1.477-3.164 3.293-3.164zm13.611-1.172a7.735 7.735 0 0 0 3.5 2.13v8.928l-9.658-4.933a7.096 7.096 0 0 0 .128-2.982zm8.989-4.945c0 1.745-1.475 3.164-3.288 3.164-1.813 0-3.288-1.42-3.288-3.164 0-1.745 1.475-3.164 3.288-3.164 1.813 0 3.288 1.419 3.288 3.164zm-17.545 24.4a7.77 7.77 0 0 0-3.08-1.581v-6.404a7.773 7.773 0 0 0 3.234-1.713l9.428 4.81zm25.984-16.286a7.135 7.135 0 0 0 .132 2.961l-9.659 4.938v-8.937a7.733 7.733 0 0 0 3.497-2.127zm9.79 6.44c0-1.165-.982-2.109-2.195-2.109-1.816 0-3.293-1.42-3.293-3.164 0-1.745 1.477-3.164 3.293-3.164s3.293 1.42 3.293 3.164c0 1.165.982 2.11 2.195 2.11 1.212 0 2.195-.945 2.195-2.11 0-4.07-3.447-7.383-7.683-7.383-2.244 0-4.267.93-5.673 2.41L35.592 9.52c.06-.37.09-.75.09-1.137C35.683 4.312 32.237 1 28 1c-4.236 0-7.683 3.312-7.683 7.383 0 .385.03.763.09 1.132l-6.067 3.16a7.808 7.808 0 0 0-5.657-2.394C4.447 10.281 1 13.593 1 17.664c0 3.26 2.211 6.032 5.268 7.007v6.658C3.211 32.304 1 35.075 1 38.336c0 4.07 3.447 7.383 7.683 7.383a7.808 7.808 0 0 0 5.652-2.388l6.067 3.193a7.134 7.134 0 0 0-.085 1.093C20.317 51.688 23.764 55 28 55c1.212 0 2.195-.944 2.195-2.11 0-1.164-.983-2.109-2.195-2.109-1.816 0-3.293-1.419-3.293-3.164s1.477-3.164 3.293-3.164 3.293 1.42 3.293 3.164c0 1.165.982 2.11 2.195 2.11 1.212 0 2.195-.945 2.195-2.11 0-.392-.033-.776-.094-1.152l6.004-3.21a7.804 7.804 0 0 0 5.724 2.464c1.213 0 2.195-.945 2.195-2.11S48.53 41.5 47.317 41.5c-1.816 0-3.293-1.42-3.293-3.164 0-1.745 1.477-3.164 3.293-3.164s3.293 1.42 3.293 3.164c0 1.165.982 2.11 2.195 2.11 1.212 0 2.195-.945 2.195-2.11 0-3.338-2.318-6.164-5.488-7.074z"/>
      <path fill="none" stroke="url(#14ila)" stroke-miterlimit="50" stroke-width="2" d="M42.262 32.784l-9.582-4.89 9.428-4.81a7.764 7.764 0 0 0 3.014 1.654v6.524a7.77 7.77 0 0 0-2.86 1.522zm-8.581 9.881a7.734 7.734 0 0 0-3.486-2.114v-9.148l9.71 4.964a7.11 7.11 0 0 0-.196 3.068zm-17.418-3.13a7.107 7.107 0 0 0-.178-3.172l9.71-4.96v9.14A7.73 7.73 0 0 0 22.27 42.7zM8.683 41.5c-1.816 0-3.293-1.42-3.293-3.164 0-1.745 1.477-3.164 3.293-3.164s3.293 1.42 3.293 3.164c0 1.745-1.477 3.164-3.293 3.164zm0-27c1.816 0 3.293 1.42 3.293 3.164 0 1.745-1.477 3.164-3.293 3.164s-3.293-1.42-3.293-3.164c0-1.745 1.477-3.164 3.293-3.164zm13.611-1.172a7.735 7.735 0 0 0 3.5 2.13v8.928l-9.658-4.933a7.096 7.096 0 0 0 .128-2.982zm8.989-4.945c0 1.745-1.475 3.164-3.288 3.164-1.813 0-3.288-1.42-3.288-3.164 0-1.745 1.475-3.164 3.288-3.164 1.813 0 3.288 1.419 3.288 3.164zm-17.545 24.4a7.77 7.77 0 0 0-3.08-1.581v-6.404a7.773 7.773 0 0 0 3.234-1.713l9.428 4.81zm25.984-16.286a7.135 7.135 0 0 0 .132 2.961l-9.659 4.938v-8.937a7.733 7.733 0 0 0 3.497-2.127zm9.79 6.44c0-1.165-.982-2.109-2.195-2.109-1.816 0-3.293-1.42-3.293-3.164 0-1.745 1.477-3.164 3.293-3.164s3.293 1.42 3.293 3.164c0 1.165.982 2.11 2.195 2.11 1.212 0 2.195-.945 2.195-2.11 0-4.07-3.447-7.383-7.683-7.383-2.244 0-4.267.93-5.673 2.41L35.592 9.52c.06-.37.09-.75.09-1.137C35.683 4.312 32.237 1 28 1c-4.236 0-7.683 3.312-7.683 7.383 0 .385.03.763.09 1.132l-6.067 3.16a7.808 7.808 0 0 0-5.657-2.394C4.447 10.281 1 13.593 1 17.664c0 3.26 2.211 6.032 5.268 7.007v6.658C3.211 32.304 1 35.075 1 38.336c0 4.07 3.447 7.383 7.683 7.383a7.808 7.808 0 0 0 5.652-2.388l6.067 3.193a7.134 7.134 0 0 0-.085 1.093C20.317 51.688 23.764 55 28 55c1.212 0 2.195-.944 2.195-2.11 0-1.164-.983-2.109-2.195-2.109-1.816 0-3.293-1.419-3.293-3.164s1.477-3.164 3.293-3.164 3.293 1.42 3.293 3.164c0 1.165.982 2.11 2.195 2.11 1.212 0 2.195-.945 2.195-2.11 0-.392-.033-.776-.094-1.152l6.004-3.21a7.804 7.804 0 0 0 5.724 2.464c1.213 0 2.195-.945 2.195-2.11S48.53 41.5 47.317 41.5c-1.816 0-3.293-1.42-3.293-3.164 0-1.745 1.477-3.164 3.293-3.164s3.293 1.42 3.293 3.164c0 1.165.982 2.11 2.195 2.11 1.212 0 2.195-.945 2.195-2.11 0-3.338-2.318-6.164-5.488-7.074z"/>
    </g>
  </g>
</svg>
