<svg xmlns="http://www.w3.org/2000/svg" viewBox="0 0 60 60">
  <defs/>
  <path fill="#2764f6" d="M37.9 22.2c1.5 0 2.9.4 4.1 1.2 1.2.8 2.2 2 2.7 3.3.6 1.3.7 2.8.4 4.3-.3 1.4-1 2.7-2 3.8-1 1-2.3 1.7-3.8 2-1.4.3-2.9.1-4.3-.4-1.3-.6-2.5-1.5-3.3-2.7-.8-1.2-1.2-2.6-1.2-4.1 0-2 .8-3.8 2.2-5.2 1.4-1.4 3.3-2.2 5.2-2.2zm0-3.7c-2.2 0-4.3.6-6.2 1.9-1.8 1.2-3.2 2.9-4.1 5-.8 2-1.1 4.3-.6 6.4.4 2.1 1.5 4.1 3 5.7 1.5 1.5 3.5 2.6 5.7 3 2.1.4 4.4.2 6.4-.6s3.8-2.3 5-4.1c1.2-1.8 1.9-4 1.9-6.2 0-2.9-1.2-5.8-3.2-7.8-2.1-2.1-4.9-3.3-7.9-3.3z"/>
  <path fill="#7efbc5" d="M11.1 35c-.1-.1-.1-.2-.1-.3 0-.1.1-.2.2-.2l6.8-4.6s.7-.5 0-1c-.6-.4-5.3-3.6-6.7-4.5l-.1-.1s-.1-.1-.1-.2v-.2c0-.1 0-.1.1-.2l1.5-2.1c.1-.1.1-.1.2-.1h.3l10 6.7s.6.5.6 1.2c0 .3 0 .6-.2.9-.1.3-.3.5-.6.7l-9.9 6.6s-.1 0-.1.1h-.2c-.1 0-.1 0-.1-.1s-.1-.1-.1-.1L11.1 35z"/>
</svg>
