<svg xmlns="http://www.w3.org/2000/svg" id="Layer_1" x="0" y="0" version="1.1" viewBox="0 0 48 48" xml:space="preserve">
  <defs/>
  <style>
    .st1{fill:#fff}
  </style>
  <path fill="#143a3a" d="M24 48C10.7 48 0 37.3 0 24S10.7 0 24 0s24 10.7 24 24-10.7 24-24 24z"/>
  <path d="M36.4 12.4h-3.8c-.8 0-1.5.5-1.6 1.3l-3.4 12.1h-.4l-4-12.2c-.2-.7-.9-1.2-1.6-1.2H17c-.2-.1-.3.1-.2.3L22.5 29c.2.4.4.5.9.5h2.9c-1.2 4-7.3 2-8.8 1.6-.2-.1-.5.2-.4.5l1.3 3.9c.1.2.2.3.4.3.7.2 3.3.9 6.1.4 3.8-.8 5.3-4.3 5.9-5.6.7-1.7 5.4-16 6-17.8-.1-.2-.2-.4-.4-.4z" class="st1"/>
  <path d="M21.2 29.1l-1.6-4.4c-.1-.4-.5-.7-1-.7h-3.9c-.9 0-1.6.9-1.3 1.8.4 1 .5 1.6.9 2.6.2.7.9 1.2 1.6 1.2h4.9c.3 0 .5-.3.4-.5z" class="st1"/>
</svg>
