<svg xmlns="http://www.w3.org/2000/svg" xmlns:xlink="http://www.w3.org/1999/xlink" viewBox="0 0 38 38">
  <defs/>
  <defs>
    <path id="a" d="M0 0h38v38H0z"/>
  </defs>
  <clipPath id="b">
    <use overflow="visible" xlink:href="#a"/>
  </clipPath>
  <g clip-path="url(#b)">
    <path fill="#3375bb" fill-rule="evenodd" d="M1.3 6.5C0 9 0 12.4 0 19s0 10 1.3 12.5c1.1 2.2 3 4 5.2 5.2C9 38 12.4 38 19 38s10 0 12.5-1.3c2.2-1.1 4-3 5.2-5.2C38 29 38 25.6 38 19s0-10-1.3-12.5c-1.1-2.2-3-4-5.2-5.2C29 0 25.6 0 19 0S9 0 6.5 1.3c-2.2 1.1-4.1 3-5.2 5.2zm27.2 3.7c.3 0 .6.1.9.4.2.2.4.6.4.9-.1 3.5-.2 6.2-.5 8.4-.2 2.1-.6 3.7-1.2 5-.4.9-.8 1.6-1.4 2.2-.7.8-1.6 1.4-2.5 1.9-.4.2-.8.5-1.2.7-.9.5-1.9 1.1-3.1 1.9-.4.3-1 .3-1.4 0-1.2-.8-2.2-1.4-3.1-1.9l-.6-.3c-1.1-.6-2.1-1.2-2.9-2.1-.6-.6-1.1-1.3-1.5-2.1-.5-1.1-.9-2.4-1.2-4.2-.4-2.3-.5-5.3-.6-9.5 0-.3.1-.6.4-.9.2-.2.6-.4.9-.4h.5c1.6 0 5-.1 8.1-2.5.4-.3 1.1-.3 1.5 0 3 2.3 6.5 2.5 8.1 2.5h.4zm-2.8 13.9c.4-.8.7-1.9 1-3.5.3-1.9.5-4.5.6-7.9-1.9-.1-5-.4-8.1-2.5-3 2-6.2 2.4-8.1 2.5.1 2.9.2 5.1.4 6.9.2 2 .6 3.4 1 4.3.3.6.6 1.1 1 1.5.5.5 1.1 1 2 1.5.4.2.7.4 1.2.7.8.4 1.6.9 2.6 1.5.9-.6 1.8-1.1 2.5-1.5.2-.1.4-.2.6-.4 1-.6 1.8-1.1 2.4-1.7.3-.3.6-.8.9-1.4z" clip-rule="evenodd"/>
  </g>
  <path fill="#3375bb" d="M53.3 15.2H49v-2.5h11.6v2.5h-4.3V26h-3.1V15.2zm10.9 1.9c.4-.5.8-.9 1.4-1.1.6-.3 1.3-.4 2.1-.4v2.7H67c-.8 0-1.5.2-2 .7-.5.5-.7 1.2-.7 2.1V26h-3V15.8h2.8v1.3zm15-1.3V26h-2.8v-1.2c-.4.4-.9.8-1.4 1-.5.2-1.1.3-1.8.3-1.3 0-2.4-.4-3.2-1.2-.8-.8-1.2-1.9-1.2-3.4v-5.8h3V21c0 1.6.7 2.5 2.1 2.5.7 0 1.3-.2 1.7-.7.4-.5.6-1.2.6-2.1v-5.1h3zm5.6 10.4c-.8 0-1.7-.1-2.5-.3-.8-.2-1.5-.5-1.9-.8l1-2.1c.5.3 1 .5 1.7.7.6.2 1.3.3 1.9.3 1.3 0 1.9-.3 1.9-.9 0-.3-.2-.5-.5-.6-.3-.1-.9-.2-1.6-.3-.8-.1-1.5-.3-2.1-.4-.5-.2-1-.5-1.4-.9-.4-.4-.6-1-.6-1.8 0-.6.2-1.2.6-1.7.4-.5.9-.9 1.6-1.2.7-.3 1.6-.4 2.5-.4.7 0 1.4.1 2.1.2.7.2 1.3.4 1.8.6l-1 2.1c-.9-.5-1.9-.8-2.9-.8-.6 0-1.1.1-1.4.3-.3.2-.5.4-.5.7 0 .3.2.5.5.7.3.1.9.2 1.6.4.8.1 1.5.3 2.1.5.5.2 1 .4 1.4.9.4.4.6 1 .6 1.7 0 .6-.2 1.2-.6 1.7-.4.5-.9.9-1.7 1.2-.7 0-1.6.2-2.6.2zm12.7-.7c-.3.2-.7.4-1.1.5-.4.1-.9.2-1.3.2-1.2 0-2.2-.3-2.8-.9-.7-.6-1-1.5-1-2.7v-4.2h-1.6V16h1.6v-2.5h3V16h2.5v2.3h-2.5v4.2c0 .4.1.8.3 1 .2.2.5.3 1 .3s.9-.1 1.2-.4l.7 2.1zm26.2-12.8L119.4 26h-3.3l-2.9-9-3 9h-3.3l-4.4-13.3h3.2l3 9.3 3.1-9.3h2.8l3 9.4 3.1-9.4h3zm4.3 2.9c1.6 0 2.8.4 3.6 1.1.8.7 1.3 1.9 1.3 3.4V26h-2.8v-1.3c-.6 1-1.6 1.4-3.1 1.4-.8 0-1.5-.1-2.1-.4-.6-.3-1-.6-1.3-1.1-.3-.5-.5-1-.5-1.6 0-1 .4-1.7 1.1-2.2.7-.5 1.8-.8 3.3-.8h2.4c0-.6-.2-1.1-.6-1.5-.4-.4-1-.5-1.8-.5-.5 0-1.1.1-1.6.3-.5.2-1 .4-1.3.7l-1.1-2.1c.6-.4 1.2-.7 2-.9.9-.3 1.7-.4 2.5-.4zm-.2 8.6c.5 0 1-.1 1.3-.3.4-.2.7-.6.8-1v-1h-2c-1.2 0-1.8.4-1.8 1.2 0 .4.1.7.4.9.4 0 .8.2 1.3.2zm7.3-12.3h3V26h-3V11.9zm5.1 0h3V26h-3V11.9zm15.2 9s0 .3-.1.8h-7.7c.1.6.5 1.1 1 1.5.5.4 1.2.6 1.9.6.5 0 1-.1 1.4-.2.4-.2.8-.4 1.2-.8l1.6 1.7c-1 1.1-2.4 1.7-4.2 1.7-1.2 0-2.2-.2-3.1-.7-.9-.5-1.6-1.1-2.1-1.9-.5-.8-.7-1.7-.7-2.7 0-1 .2-1.9.7-2.7.5-.8 1.1-1.4 2-1.9.8-.5 1.8-.7 2.8-.7 1 0 1.9.2 2.7.6.8.4 1.4 1.1 1.9 1.9.4.8.7 1.8.7 2.8zm-5.3-3c-.7 0-1.2.2-1.7.6-.5.4-.7.9-.8 1.6h5c-.1-.6-.4-1.2-.8-1.5-.5-.5-1.1-.7-1.7-.7zm13.3 7.6c-.3.2-.7.4-1.1.5-.4.1-.9.2-1.3.2-1.2 0-2.2-.3-2.8-.9-.7-.6-1-1.5-1-2.7v-4.2h-1.6V16h1.6v-2.5h3V16h2.5v2.3h-2.5v4.2c0 .4.1.8.3 1 .2.2.5.3.9.3.5 0 .9-.1 1.2-.4l.8 2.1z"/>
  <g>
    <defs>
      <path id="c" d="M169 0h38v38h-38z"/>
    </defs>
    <clipPath id="d">
      <use overflow="visible" xlink:href="#c"/>
    </clipPath>
    <g clip-path="url(#d)">
      <path fill="#fff" fill-rule="evenodd" d="M170.3 6.5C169 9 169 12.4 169 19s0 10 1.3 12.5c1.1 2.2 3 4 5.2 5.2C178 38 181.4 38 188 38s10 0 12.5-1.3c2.2-1.1 4-3 5.2-5.2C207 29 207 25.6 207 19s0-10-1.3-12.5c-1.1-2.2-3-4-5.2-5.2C198 0 194.6 0 188 0s-10 0-12.5 1.3c-2.2 1.1-4.1 3-5.2 5.2zm27.2 3.7c.3 0 .6.1.9.4.2.2.4.6.4.9-.1 3.5-.2 6.2-.5 8.4-.2 2.1-.6 3.7-1.2 5-.4.9-.8 1.6-1.4 2.2-.7.8-1.6 1.4-2.5 1.9-.4.2-.8.5-1.2.7-.9.5-1.9 1.1-3.1 1.9-.4.3-1 .3-1.4 0-1.2-.8-2.2-1.4-3.1-1.9l-.6-.3c-1.1-.6-2.1-1.2-2.9-2.1-.6-.6-1.1-1.3-1.5-2.1-.5-1.1-.9-2.4-1.2-4.2-.4-2.3-.5-5.3-.6-9.5 0-.3.1-.6.3-.9.2-.2.6-.4.9-.4h.5c1.6 0 5-.1 8.1-2.5.4-.3 1.1-.3 1.5 0 3 2.3 6.5 2.5 8.1 2.5h.5zm-2.8 13.9c.4-.8.7-1.9 1-3.5.3-1.9.5-4.5.6-7.9-1.9-.1-5-.4-8.1-2.5-3 2-6.2 2.4-8.1 2.5.1 2.9.2 5.1.4 6.9.2 2 .6 3.4 1 4.3.3.6.6 1.1 1 1.5.5.5 1.1 1 2 1.5.4.2.7.4 1.2.7.8.4 1.6.9 2.6 1.5.9-.6 1.8-1.1 2.5-1.5.2-.1.4-.2.6-.4 1-.6 1.8-1.1 2.4-1.7.3-.3.6-.8.9-1.4z" clip-rule="evenodd"/>
    </g>
  </g>
  <path fill="#fff" d="M221.9 15.2h-4.3v-2.5h11.6v2.5H225V26h-3.1V15.2zm10.8 1.9c.4-.5.8-.9 1.4-1.1.6-.3 1.3-.4 2.1-.4v2.7h-.7c-.8 0-1.5.2-2 .7-.5.5-.7 1.2-.7 2.1V26h-3V15.8h2.8v1.3zm15.1-1.3V26H245v-1.2c-.4.4-.9.8-1.4 1-.5.2-1.1.3-1.8.3-1.3 0-2.4-.4-3.2-1.2-.8-.8-1.2-1.9-1.2-3.4v-5.8h3V21c0 1.6.7 2.5 2.1 2.5.7 0 1.3-.2 1.7-.7.4-.5.6-1.2.6-2.1v-5.1h3zm5.6 10.4c-.8 0-1.7-.1-2.5-.3-.8-.2-1.5-.5-1.9-.8l1-2.1c.5.3 1 .5 1.7.7.6.2 1.3.3 1.9.3 1.3 0 1.9-.3 1.9-.9 0-.3-.2-.5-.5-.6-.3-.1-.9-.2-1.6-.3-.8-.1-1.5-.3-2.1-.4-.5-.2-1-.5-1.4-.9-.4-.4-.6-1-.6-1.8 0-.6.2-1.2.6-1.7.4-.5.9-.9 1.6-1.2.7-.3 1.6-.4 2.5-.4.7 0 1.4.1 2.1.2.7.2 1.3.4 1.8.6l-1 2.1c-.9-.5-1.9-.8-2.9-.8-.6 0-1.1.1-1.4.3-.3.2-.5.4-.5.7 0 .3.2.5.5.7s.9.2 1.6.4c.8.1 1.5.3 2.1.5.5.2 1 .4 1.4.9.4.4.6 1 .6 1.7 0 .6-.2 1.2-.6 1.7-.4.5-.9.9-1.7 1.2-.7 0-1.6.2-2.6.2zm12.7-.7c-.3.2-.7.4-1.1.5-.4.1-.9.2-1.3.2-1.2 0-2.2-.3-2.8-.9-.7-.6-1-1.5-1-2.7v-4.2h-1.6V16h1.6v-2.5h3V16h2.5v2.3h-2.5v4.2c0 .4.1.8.3 1 .2.2.5.3 1 .3s.9-.1 1.2-.4l.7 2.1zm26.2-12.8L287.9 26h-3.3l-2.9-9-3 9h-3.3L271 12.7h3.2l3 9.3 3.1-9.3h2.9l3 9.4 3.1-9.4h3zm4.3 2.9c1.6 0 2.8.4 3.6 1.1.8.7 1.3 1.9 1.3 3.4V26h-2.8v-1.3c-.6 1-1.6 1.4-3.1 1.4-.8 0-1.5-.1-2.1-.4-.6-.3-1-.6-1.3-1.1-.3-.5-.5-1-.5-1.6 0-1 .4-1.7 1.1-2.2.7-.5 1.8-.8 3.3-.8h2.4c0-.6-.2-1.1-.6-1.5-.4-.4-1-.5-1.8-.5-.5 0-1.1.1-1.6.3-.5.2-1 .4-1.3.7l-1.1-2.1c.6-.4 1.2-.7 2-.9.9-.3 1.7-.4 2.5-.4zm-.2 8.6c.5 0 1-.1 1.3-.3.4-.2.7-.6.8-1v-1h-2c-1.2 0-1.8.4-1.8 1.2 0 .4.1.7.4.9.3 0 .7.2 1.3.2zm7.2-12.3h3V26h-3V11.9zm5.2 0h3V26h-3V11.9zm15.1 9s0 .3-.1.8h-7.7c.1.6.5 1.1 1 1.5.5.4 1.2.6 1.9.6.5 0 1-.1 1.4-.2.4-.2.8-.4 1.2-.8l1.6 1.7c-1 1.1-2.4 1.7-4.2 1.7-1.2 0-2.2-.2-3.1-.7-.9-.5-1.6-1.1-2.1-1.9-.5-.8-.7-1.7-.7-2.7 0-1 .2-1.9.7-2.7.5-.8 1.1-1.4 2-1.9.8-.5 1.8-.7 2.8-.7 1 0 1.9.2 2.7.6.8.4 1.4 1.1 1.9 1.9.5.8.7 1.8.7 2.8zm-5.3-3c-.7 0-1.2.2-1.7.6-.5.4-.7.9-.8 1.6h5c-.1-.6-.4-1.2-.8-1.5-.5-.5-1-.7-1.7-.7zm13.3 7.6c-.3.2-.7.4-1.1.5-.4.1-.9.2-1.3.2-1.2 0-2.2-.3-2.8-.9-.7-.6-1-1.5-1-2.7v-4.2h-1.6V16h1.6v-2.5h3V16h2.5v2.3h-2.5v4.2c0 .4.1.8.3 1 .2.2.5.3 1 .3s.9-.1 1.2-.4l.7 2.1z"/>
</svg>
