<svg enable-background="new 0 0 512 512" viewBox="0 0 512 512" xmlns="http://www.w3.org/2000/svg" xmlns:xlink="http://www.w3.org/1999/xlink"><linearGradient id="a"><stop offset="0" stop-color="#00e8cc"/><stop offset=".95" stop-color="#00e8cc"/></linearGradient><linearGradient id="b" gradientTransform="matrix(1 0 0 -1 0 511.89)" gradientUnits="userSpaceOnUse" x1="187.8" x2="290.89" xlink:href="#a" y1="274.4696" y2="274.4696"/><linearGradient id="c" gradientTransform="matrix(1 0 0 -1 0 511.89)" gradientUnits="userSpaceOnUse" x1="212.06" x2="261.21" xlink:href="#a" y1="449.3546" y2="449.3546"/><linearGradient id="d" gradientTransform="matrix(1 0 0 -1 0 511.89)" gradientUnits="userSpaceOnUse" x1="227.3" x2="261.21" xlink:href="#a" y1="54.2446" y2="54.2446"/><path d="m227.3 11.6c0-9.6-6.8-13.5-15.1-8.7 0 0-32 18.7-56.2 30.2-29.1 13.9-74.8 26-103.7 31.7-18.8 3.7-21.5 15.7-22.4 26.9-1.4 17-2.3 37.6-2.9 54.6-1.4 44.2-5.3 90.4-.5 134.4 2.9 26.4 10.1 56.2 22.5 80 17.9 34.6 41.7 65.9 70.2 92.5 28.7 26.7 92.4 56.4 92.4 56.4 8.7 4.1 15.9-.5 15.9-10.1z" fill="#311b58"/><path d="m155.5 59.9c-41.7 16.4-101.6 30.2-101.6 30.2-1.7 22.1-3.5 44.4-4.2 66.6-1.2 39.4-4.7 80.6-.5 119.8 2.5 23.6 9 50.1 20 71.3 16.1 30.8 37 61.7 62.6 85.4s57.9 39.2 89.3 53.9l6.2 2.9v-464.2c-23.2 12.8-47.2 24.2-71.8 34.1z" fill="#00e8cc"/><path d="m278.3 499.5c0 9.6 7.1 14.2 15.9 10.1 0 0 63.4-29.7 92.1-56.4 28.5-26.6 52.2-57.9 70.2-92.5 12.4-23.7 19.6-53.5 22.5-80 4.8-44 .8-90.2-.5-134.4-.5-17-1.5-37.7-2.9-54.6-.9-11.2-3.6-23.2-22.4-26.9-28.9-5.6-74.7-17.8-103.8-31.6-24-11.4-55.9-30-55.9-30-8.3-4.8-15.1-.9-15.1 8.7z" fill="#311b58"/><path d="m284.3 487c31.4-14.6 63.6-30.1 89.2-53.9s46.5-54.6 62.6-85.4c11-21.1 17.5-47.7 20-71.3 4.2-39.2.7-80.4-.5-119.8-.7-22.2-2.4-44.5-4.1-66.6 0 0-59.9-13.8-101.6-30.2-24.6-9.8-48.5-21.2-71.6-34v464z" fill="#50239f"/><path d="m187.8 182.4h103.1v110.1h-103.1z" fill="url(#b)"/><path d="m326 140.6h-200.8c-15.6-.3-28.1-13.2-27.8-28.8.3-15.2 12.5-27.5 27.8-27.8h200.8c15.6.3 28.1 13.2 27.8 28.8-.3 15.3-12.6 27.6-27.8 27.8z" fill="#00e8cc"/><path d="m316.7 322.6h-191.5c-16.6 0-30.1-13.5-30.1-30.1s13.5-30.1 30.1-30.1h191.5c16.6 0 30.1 13.5 30.1 30.1s-13.5 30.1-30.1 30.1z" fill="#00e8cc"/><path d="m326 379.2h-128.4c-15.6-.3-28.1-13.2-27.8-28.8.3-15.2 12.5-27.5 27.8-27.8h128.4c15.6.3 28.1 13.2 27.8 28.8-.3 15.2-12.6 27.5-27.8 27.8z" fill="#50239f"/><path d="m227.3 65c0-10.5 0-27.5 0-27.5l-15.2.9v49.1h49.1v-3.4h-14.9c-10.5 0-19-8.5-19-19.1z" fill="url(#c)"/><path d="m227.3 467.2v3.4-25.2l33.9-.6v3.4h-14.9c-10.5-.1-19 8.5-19 19z" fill="url(#d)"/><path d="m296.6 224.2h-97.8c-23.1-.4-41.6-19.4-41.2-42.5.3-22.6 18.6-40.9 41.2-41.2h97.8c23.1.4 41.6 19.4 41.2 42.5-.3 22.6-18.5 40.9-41.2 41.2z" fill="#50239f"/><path d="m292.5 448.1h-86c-19.1 0-34.5-15.4-34.5-34.5s15.4-34.5 34.5-34.5h86c19.1 0 34.5 15.4 34.5 34.5s-15.4 34.5-34.5 34.5z" fill="#00e8cc"/><path d="m378.9 262.3h-128.3c-11.9-.3-21.4-10.1-21.1-22.1.2-11.6 9.6-20.9 21.1-21.1h128.4c11.9-.3 21.8 9.2 22.1 21.1s-9.2 21.8-21.1 22.1c-.5 0-.8 0-1.1 0z" fill="#50239f"/></svg>