<svg xmlns="http://www.w3.org/2000/svg" viewBox="0 0 32 32">
  <defs/>
  <g fill-rule="evenodd" clip-rule="evenodd">
    <circle cx="16" cy="16" r="16"/>
    <path fill="#fff" d="M18.2 26c-1.5 0-2.5-.3-3.2-1-.7-.7-1-1.4-1-2.2 0-.3.1-.5.2-.7.1-.2.3-.4.5-.5.2-.1.4-.2.7-.2s.5.1.7.2c.2.1.4.3.5.5.1.2.2.4.2.7 0 .4-.1.6-.3.9-.1.2-.4.4-.6.4.2.3.5.5 1 .6.4.1.9.2 1.3.2.6 0 1.2-.2 1.6-.5.5-.3.9-.8 1.1-1.4.2-.6.4-1.3.4-2.1 0-.9-.1-1.6-.4-2.2-.2-.6-.6-1.1-1.1-1.4-.5-.3-1-.4-1.6-.4-.4 0-.8.2-1.4.5l-1 .5v-.5l4.6-6H14v6.3c0 .5.1.9.4 1.3.2.3.6.5 1.1.5.4 0 .7-.1 1.1-.4.3-.2.6-.5.9-.9 0-.1.1-.1.1-.1s.1-.1.2-.1.2 0 .3.1c.1.1.2.3.2.4 0 .1 0 .2-.1.3-.3.6-.6 1-1.1 1.3-.5.3-1 .5-1.5.5-1.4 0-2.3-.3-2.9-.8-.5-.5-.8-1.3-.8-2.2v-6.3H8.5V10h3.3V7.3l-.8-.7V6h2.2l.8.4V10h8.4l.8.8-5.2 5.1c.3-.1.6-.2 1-.2.6 0 1.2.2 1.9.5s1.2.8 1.6 1.4c.4.6.6 1.2.7 1.7.1.5.2 1 .2 1.5 0 .9-.2 1.9-.6 2.7-.4.8-1.1 1.5-1.9 1.9-.8.4-1.8.6-2.7.6z"/>
  </g>
</svg>
