<svg xmlns="http://www.w3.org/2000/svg" id="Layer_1" x="0" y="0" version="1.1" viewBox="0 0 400 400" xml:space="preserve">
  <defs/>
  <style>
    .st0{fill:#6ac}.st1{fill:#006dcc}
  </style>
  <path d="M200 165.5c-33.3-82.7-16.7-41.3 0 0z" class="st0"/>
  <path d="M74 194.5v-81l125.5-72 126.5 73V169l-72 42.5-73-42 19-11 53 31 53-31V126L200 63.5l-106 62v58l-20 11z" class="st1"/>
  <path d="M127.1 143.5l74.2-43.1 71.6 41.1-18.3 10.9-52.5-31-75 43v-20.9z" class="st0"/>
  <path d="M326 205.5v81l-125.5 72-126.5-73V231l72-42.5 73 42-19 11-53-31-53 31V274l106 62.5 106-62v-58l20-11z" class="st1"/>
  <path d="M272.9 256.5l-74.2 43.1-71.6-41.1 18.3-10.9 52.5 31 75-43v20.9z" class="st0"/>
</svg>
